<svg xmlns="http://www.w3.org/2000/svg" viewBox="0 0 149.8 149.8"><defs><style>.cls-1{fill:#3888c2;}</style></defs><title>Asset 1</title><g id="Layer_2" data-name="Layer 2"><g id="Layer_1-2" data-name="Layer 1"><path class="cls-1" d="M21.5,128.5H128.7V107.3h-6.6V92.2h6.6V42.6h-6.6V27.5h6.6V21.4H21.5ZM37.7,45.8l19.1,11h0l.8,2.9,14.7,8.5a6.44,6.44,0,0,1,2.8-.7,5.3,5.3,0,0,1,2.8.7l14.7-8.5.8-3v-.1l19.1-11,5.6,9.7L99,66.3h0l-3-.6L81.2,74.2a6,6,0,0,1-2.7,4.7v17l2.2,2.2h.1v22.1H69.5v-22h0l2.1-2.1V79a6.06,6.06,0,0,1-2.8-4.8L54.1,65.7l-3,.8v.1L32,55.6Z"/><path class="cls-1" d="M131,0H18.8A18.78,18.78,0,0,0,0,18.8V131a18.78,18.78,0,0,0,18.8,18.8H131A18.78,18.78,0,0,0,149.8,131V18.8A18.71,18.71,0,0,0,131,0Zm7.7,57.6h-3.4V92.2h3.4v30.1h-3.4v12.8H14.8V14.7H135.4V27.5h3.4V57.6Z"/></g></g></svg>